<?xml version="1.0" encoding="UTF-8"?>
<!DOCTYPE svg PUBLIC "-//W3C//DTD SVG 1.1//EN" "http://www.w3.org/Graphics/SVG/1.1/DTD/svg11.dtd">
<!-- Creator: CorelDRAW 2020 (64 Bit) -->
<svg xmlns="http://www.w3.org/2000/svg" xml:space="preserve" width="143.273mm" height="45.1427mm" version="1.1" style="shape-rendering:geometricPrecision; text-rendering:geometricPrecision; image-rendering:optimizeQuality; fill-rule:evenodd; clip-rule:evenodd"
viewBox="0 0 14416.23 4542.28"
 xmlns:xlink="http://www.w3.org/1999/xlink"
 xmlns:xodm="http://www.corel.com/coreldraw/odm/2003">
 <defs>
    <linearGradient id="header-shape-gradient" x2="0.35" y2="1">
        <stop offset="0%" stop-color="#015FA9" />
        <stop offset="30%" stop-color="#0198A9" />
        
      </linearGradient>
  </defs>
 <g id="Camada_x0020_1">
  <metadata id="CorelCorpID_0Corel-Layer"/>
  <g id="_1722523460720">
   <path class="fil0" d="M6043.46 2014.92c693.16,1768.31 -1399.47,1996.52 -1720.23,776.9 -152.34,-579.21 188.27,-1124.42 657.62,-1266.19 160,-48.33 390.64,-43.02 552.12,-8.48 18.87,4.03 952.37,-634.71 962.2,-645.23 -264.49,-279.17 -973.66,-444.95 -1457.06,-387.41 -1399.82,166.63 -2342.69,1886.16 -1346.19,3259.18 879.36,1211.62 2842.81,1011.65 3422.64,-509.55 241.91,-634.68 82.75,-985.3 -1.25,-1587.39l337.63 -151.99c2.64,1182.18 -145.42,1924.56 566.91,2608.98 369.01,354.55 942.43,531.11 1599.06,389.68 550.28,-118.53 937.15,-500.01 1140.94,-917.6 229.01,-469.24 154.27,-1292.77 155.5,-1851.99l3.38 -1202.73 -992.6 -3 -3.1 992.75c-2.18,709.07 121.01,1582.3 -293.54,1893.65 -351,263.63 -1169.32,255.83 -1168.46,-757.76 0.36,-423.05 57.44,-1811.41 -21.6,-2130.76 -334.57,264.91 -2137.88,1307.07 -2393.98,1498.93z"/>
   <path class="fil0" d="M6043.46 2014.92c693.16,1768.31 -1399.47,1996.52 -1720.23,776.9 -152.34,-579.21 188.27,-1124.42 657.62,-1266.19 160,-48.33 390.64,-43.02 552.12,-8.48 18.87,4.03 952.37,-634.71 962.2,-645.23 -264.49,-279.17 -973.66,-444.95 -1457.06,-387.41 -1399.82,166.63 -2342.69,1886.16 -1346.19,3259.18 879.36,1211.62 2842.81,1011.65 3422.64,-509.55 241.91,-634.68 82.75,-985.3 -1.25,-1587.39l337.63 -151.99c2.64,1182.18 -145.42,1924.56 566.91,2608.98 369.01,354.55 942.43,531.11 1599.06,389.68 550.28,-118.53 937.15,-500.01 1140.94,-917.6 229.01,-469.24 154.27,-1292.77 155.5,-1851.99l3.38 -1202.73 -992.6 -3 -3.1 992.75c-2.18,709.07 121.01,1582.3 -293.54,1893.65 -351,263.63 -1169.32,255.83 -1168.46,-757.76 0.36,-423.05 57.44,-1811.41 -21.6,-2130.76 -334.57,264.91 -2137.88,1307.07 -2393.98,1498.93z"/>
   <path class="fil0" d="M6043.46 2014.92c693.16,1768.31 -1399.47,1996.52 -1720.23,776.9 -152.34,-579.21 188.27,-1124.42 657.62,-1266.19 160,-48.33 390.64,-43.02 552.12,-8.48 18.87,4.03 952.37,-634.71 962.2,-645.23 -264.49,-279.17 -973.66,-444.95 -1457.06,-387.41 -1399.82,166.63 -2342.69,1886.16 -1346.19,3259.18 879.36,1211.62 2842.81,1011.65 3422.64,-509.55 241.91,-634.68 82.75,-985.3 -1.25,-1587.39l337.63 -151.99c2.64,1182.18 -145.42,1924.56 566.91,2608.98 369.01,354.55 942.43,531.11 1599.06,389.68 550.28,-118.53 937.15,-500.01 1140.94,-917.6 229.01,-469.24 154.27,-1292.77 155.5,-1851.99l3.38 -1202.73 -992.6 -3 -3.1 992.75c-2.18,709.07 121.01,1582.3 -293.54,1893.65 -351,263.63 -1169.32,255.83 -1168.46,-757.76 0.36,-423.05 57.44,-1811.41 -21.6,-2130.76 -334.57,264.91 -2137.88,1307.07 -2393.98,1498.93z"/>
   <path class="fil0" d="M6043.46 2014.92c693.16,1768.31 -1399.47,1996.52 -1720.23,776.9 -152.34,-579.21 188.27,-1124.42 657.62,-1266.19 160,-48.33 390.64,-43.02 552.12,-8.48 18.87,4.03 952.37,-634.71 962.2,-645.23 -264.49,-279.17 -973.66,-444.95 -1457.06,-387.41 -1399.82,166.63 -2342.69,1886.16 -1346.19,3259.18 879.36,1211.62 2842.81,1011.65 3422.64,-509.55 241.91,-634.68 82.75,-985.3 -1.25,-1587.39l337.63 -151.99c2.64,1182.18 -145.42,1924.56 566.91,2608.98 369.01,354.55 942.43,531.11 1599.06,389.68 550.28,-118.53 937.15,-500.01 1140.94,-917.6 229.01,-469.24 154.27,-1292.77 155.5,-1851.99l3.38 -1202.73 -992.6 -3 -3.1 992.75c-2.18,709.07 121.01,1582.3 -293.54,1893.65 -351,263.63 -1169.32,255.83 -1168.46,-757.76 0.36,-423.05 57.44,-1811.41 -21.6,-2130.76 -334.57,264.91 -2137.88,1307.07 -2393.98,1498.93z"/>
   <path class="fil0" d="M12169.54 1436.99c279,-3.38 774.26,-44.01 959.68,109.46 100.16,82.91 207.14,303.19 151.89,503.87 -111.49,404.87 -654.97,344.99 -1101.23,336.16l-5.81 -307.69 -4.53 -641.81zm1350.26 1706.71c505.28,-353.66 821.55,-525.18 788.79,-1284.23 -13.83,-320.63 -131.8,-632.73 -338.13,-868.76 -495.07,-586.96 -2667.64,-474.43 -2764.27,-474.51l-0.06 3933.59 965.61 0 6.7 -1300.14c242.16,10.68 840.51,998.54 1001.27,1222.08 123.54,89.68 146.47,80.45 342.36,77.94 298.32,-3.82 595.85,-1.3 894.16,-0.83 -81.18,-308.19 -755.78,-928.56 -896.44,-1305.16z"/>
   <path class="fil0" d="M12169.54 1436.99c279,-3.38 774.26,-44.01 959.68,109.46 100.16,82.91 207.14,303.19 151.89,503.87 -111.49,404.87 -654.97,344.99 -1101.23,336.16l-5.81 -307.69 -4.53 -641.81zm1350.26 1706.71c505.28,-353.66 821.55,-525.18 788.79,-1284.23 -13.83,-320.63 -131.8,-632.73 -338.13,-868.76 -495.07,-586.96 -2667.64,-474.43 -2764.27,-474.51l-0.06 3933.59 965.61 0 6.7 -1300.14c242.16,10.68 840.51,998.54 1001.27,1222.08 123.54,89.68 146.47,80.45 342.36,77.94 298.32,-3.82 595.85,-1.3 894.16,-0.83 -81.18,-308.19 -755.78,-928.56 -896.44,-1305.16z"/>
   <path class="fil0" d="M12169.54 1436.99c279,-3.38 774.26,-44.01 959.68,109.46 100.16,82.91 207.14,303.19 151.89,503.87 -111.49,404.87 -654.97,344.99 -1101.23,336.16l-5.81 -307.69 -4.53 -641.81zm1350.26 1706.71c505.28,-353.66 821.55,-525.18 788.79,-1284.23 -13.83,-320.63 -131.8,-632.73 -338.13,-868.76 -495.07,-586.96 -2667.64,-474.43 -2764.27,-474.51l-0.06 3933.59 965.61 0 6.7 -1300.14c242.16,10.68 840.51,998.54 1001.27,1222.08 123.54,89.68 146.47,80.45 342.36,77.94 298.32,-3.82 595.85,-1.3 894.16,-0.83 -81.18,-308.19 -755.78,-928.56 -896.44,-1305.16z"/>
   <path class="fil0" d="M12169.54 1436.99c279,-3.38 774.26,-44.01 959.68,109.46 100.16,82.91 207.14,303.19 151.89,503.87 -111.49,404.87 -654.97,344.99 -1101.23,336.16l-5.81 -307.69 -4.53 -641.81zm1350.26 1706.71c505.28,-353.66 821.55,-525.18 788.79,-1284.23 -13.83,-320.63 -131.8,-632.73 -338.13,-868.76 -495.07,-586.96 -2667.64,-474.43 -2764.27,-474.51l-0.06 3933.59 965.61 0 6.7 -1300.14c242.16,10.68 840.51,998.54 1001.27,1222.08 123.54,89.68 146.47,80.45 342.36,77.94 298.32,-3.82 595.85,-1.3 894.16,-0.83 -81.18,-308.19 -755.78,-928.56 -896.44,-1305.16z"/>
   <polygon class="fil0" points="0.06,1001.65 1392.55,1001.48 1392.45,4449.81 2373.13,4449.86 2373.16,1001.47 3497.63,1001.54 3497.66,0.1 -0,0 "/>
   <polygon class="fil0" points="0.06,1001.65 1392.55,1001.48 1392.45,4449.81 2373.13,4449.86 2373.16,1001.47 3497.63,1001.54 3497.66,0.1 -0,0 "/>
   <polygon class="fil0" points="0.06,1001.65 1392.55,1001.48 1392.45,4449.81 2373.13,4449.86 2373.16,1001.47 3497.63,1001.54 3497.66,0.1 -0,0 "/>
   <polygon class="fil0" points="0.06,1001.65 1392.55,1001.48 1392.45,4449.81 2373.13,4449.86 2373.16,1001.47 3497.63,1001.54 3497.66,0.1 -0,0 "/>
  </g>
 </g>   
</svg>
